<svg width="20" height="19" viewBox="0 0 20 19" fill="none" xmlns="http://www.w3.org/2000/svg">
<path d="M16.8749 0.25C16.3339 0.249768 15.8073 0.425165 15.3745 0.74983C14.9416 1.07449 14.6258 1.53088 14.4745 2.0504C14.3233 2.56992 14.3447 3.12449 14.5357 3.63077C14.7266 4.13705 15.0767 4.56768 15.5334 4.85793L13.9021 10.5676C13.8514 10.5644 13.8007 10.5627 13.7499 10.5625C13.2122 10.5619 12.6887 10.7357 12.258 11.0577L9.2442 8.54621C9.38689 8.12287 9.41353 7.66904 9.32135 7.23191C9.22918 6.79479 9.02156 6.39035 8.72009 6.06067C8.41862 5.73099 8.03432 5.48811 7.60716 5.35731C7.18001 5.2265 6.7256 5.21254 6.29122 5.31689C5.85684 5.42123 5.45836 5.64006 5.13723 5.95062C4.81609 6.26117 4.58404 6.65211 4.46521 7.08275C4.34638 7.51339 4.34511 7.96801 4.46155 8.3993C4.57798 8.8306 4.80785 9.22282 5.12725 9.53516L3.35803 13.0737C3.28055 13.0664 3.20277 13.0626 3.12495 13.0625C2.52603 13.0617 1.94669 13.2757 1.49208 13.6656C1.03747 14.0556 0.737725 14.5955 0.647258 15.1876C0.556791 15.7796 0.681595 16.3845 0.999017 16.8924C1.31644 17.4003 1.80544 17.7775 2.37726 17.9556C2.94907 18.1338 3.5658 18.101 4.1155 17.8632C4.6652 17.6254 5.11143 17.1984 5.3732 16.6598C5.63496 16.1211 5.69491 15.5064 5.54216 14.9273C5.38941 14.3482 5.03409 13.843 4.54069 13.5035L6.21256 10.1602C6.61869 10.2722 7.04657 10.2796 7.45629 10.1815C7.86602 10.0834 8.24422 9.88318 8.55561 9.59941L11.4736 12.0311C11.2754 12.4678 11.207 12.9522 11.2766 13.4267C11.3461 13.9011 11.5506 14.3456 11.8657 14.707C12.1808 15.0685 12.5932 15.3317 13.0538 15.4653C13.5143 15.5988 14.0035 15.5971 14.4631 15.4604C14.9227 15.3236 15.3333 15.0576 15.6459 14.6939C15.9585 14.3303 16.1599 13.8845 16.2262 13.4095C16.2924 12.9346 16.2207 12.4507 16.0195 12.0154C15.8183 11.5801 15.4962 11.2119 15.0916 10.9546L16.7228 5.24492C16.7732 5.24797 16.8238 5.25 16.8749 5.25C17.538 5.25 18.1739 4.98661 18.6427 4.51777C19.1116 4.04893 19.3749 3.41304 19.3749 2.75C19.3749 2.08696 19.1116 1.45107 18.6427 0.982233C18.1739 0.513392 17.538 0.25 16.8749 0.25ZM3.12495 16.8125C2.87772 16.8125 2.63604 16.7392 2.43048 16.6018C2.22492 16.4645 2.06471 16.2693 1.9701 16.0409C1.87549 15.8124 1.85073 15.5611 1.89896 15.3186C1.9472 15.0762 2.06625 14.8534 2.24106 14.6786C2.41588 14.5038 2.63861 14.3847 2.88108 14.3365C3.12356 14.2883 3.37489 14.313 3.6033 14.4076C3.83171 14.5023 4.02693 14.6625 4.16428 14.868C4.30164 15.0736 4.37495 15.3153 4.37495 15.5625C4.37457 15.8939 4.24276 16.2116 4.00842 16.446C3.77408 16.6803 3.45635 16.8121 3.12495 16.8125ZM6.87495 9C6.62772 9 6.38604 8.92669 6.18048 8.78934C5.97492 8.65199 5.81471 8.45676 5.7201 8.22835C5.62549 7.99995 5.60073 7.74861 5.64896 7.50614C5.6972 7.26366 5.81625 7.04093 5.99106 6.86612C6.16588 6.6913 6.38861 6.57225 6.63108 6.52402C6.87356 6.47579 7.12489 6.50054 7.3533 6.59515C7.58171 6.68976 7.77693 6.84998 7.91428 7.05554C8.05163 7.2611 8.12495 7.50277 8.12495 7.75C8.12457 8.08141 7.99276 8.39913 7.75842 8.63347C7.52408 8.86781 7.20635 8.99963 6.87495 9ZM13.7499 14.3125C13.5027 14.3125 13.261 14.2392 13.0555 14.1018C12.8499 13.9645 12.6897 13.7693 12.5951 13.5409C12.5005 13.3124 12.4757 13.0611 12.524 12.8186C12.5722 12.5762 12.6912 12.3534 12.8661 12.1786C13.0409 12.0038 13.2636 11.8847 13.5061 11.8365C13.7486 11.7883 13.9999 11.813 14.2283 11.9076C14.4567 12.0023 14.6519 12.1625 14.7893 12.368C14.9266 12.5736 14.9999 12.8153 14.9999 13.0625C14.9996 13.3939 14.8678 13.7116 14.6334 13.946C14.3991 14.1803 14.0814 14.3121 13.7499 14.3125ZM16.8749 4C16.6277 4 16.386 3.92669 16.1805 3.78934C15.9749 3.65199 15.8147 3.45676 15.7201 3.22835C15.6255 2.99995 15.6007 2.74861 15.649 2.50614C15.6972 2.26366 15.8162 2.04093 15.9911 1.86612C16.1659 1.6913 16.3886 1.57225 16.6311 1.52402C16.8736 1.47579 17.1249 1.50054 17.3533 1.59515C17.5817 1.68976 17.7769 1.84998 17.9143 2.05554C18.0516 2.2611 18.1249 2.50277 18.1249 2.75C18.1246 3.08141 17.9928 3.39913 17.7584 3.63347C17.5241 3.86781 17.2064 3.99963 16.8749 4Z" fill="#5D6064"/>
</svg>
