<svg width="18" height="20" viewBox="0 0 18 20" fill="none" xmlns="http://www.w3.org/2000/svg">
<path d="M3.75 13.75C3.75 13.4185 3.8817 13.1005 4.11612 12.8661C4.35054 12.6317 4.66848 12.5 5 12.5C5.33152 12.5 5.64946 12.6317 5.88388 12.8661C6.1183 13.1005 6.25 13.4185 6.25 13.75V15C6.25 15.3315 6.1183 15.6495 5.88388 15.8839C5.64946 16.1183 5.33152 16.25 5 16.25C4.66848 16.25 4.35054 16.1183 4.11612 15.8839C3.8817 15.6495 3.75 15.3315 3.75 15V13.75ZM11.25 8.75C11.25 8.41848 11.3817 8.10054 11.6161 7.86612C11.8505 7.6317 12.1685 7.5 12.5 7.5C12.8315 7.5 13.1495 7.6317 13.3839 7.86612C13.6183 8.10054 13.75 8.41848 13.75 8.75V15C13.75 15.3315 13.6183 15.6495 13.3839 15.8839C13.1495 16.1183 12.8315 16.25 12.5 16.25C12.1685 16.25 11.8505 16.1183 11.6161 15.8839C11.3817 15.6495 11.25 15.3315 11.25 15V8.75ZM7.5 11.25C7.5 10.9185 7.6317 10.6005 7.86612 10.3661C8.10054 10.1317 8.41848 10 8.75 10C9.08152 10 9.39946 10.1317 9.63388 10.3661C9.8683 10.6005 10 10.9185 10 11.25V15C10 15.3315 9.8683 15.6495 9.63388 15.8839C9.39946 16.1183 9.08152 16.25 8.75 16.25C8.41848 16.25 8.10054 16.1183 7.86612 15.8839C7.6317 15.6495 7.5 15.3315 7.5 15V11.25Z" fill="#5D6064"/>
<path d="M3.75 1.875H2.5C1.83696 1.875 1.20107 2.13839 0.732233 2.60723C0.263392 3.07607 0 3.71196 0 4.375V17.5C0 18.163 0.263392 18.7989 0.732233 19.2678C1.20107 19.7366 1.83696 20 2.5 20H15C15.663 20 16.2989 19.7366 16.7678 19.2678C17.2366 18.7989 17.5 18.163 17.5 17.5V4.375C17.5 3.71196 17.2366 3.07607 16.7678 2.60723C16.2989 2.13839 15.663 1.875 15 1.875H13.75V3.125H15C15.3315 3.125 15.6495 3.2567 15.8839 3.49112C16.1183 3.72554 16.25 4.04348 16.25 4.375V17.5C16.25 17.8315 16.1183 18.1495 15.8839 18.3839C15.6495 18.6183 15.3315 18.75 15 18.75H2.5C2.16848 18.75 1.85054 18.6183 1.61612 18.3839C1.3817 18.1495 1.25 17.8315 1.25 17.5V4.375C1.25 4.04348 1.3817 3.72554 1.61612 3.49112C1.85054 3.2567 2.16848 3.125 2.5 3.125H3.75V1.875Z" fill="#5D6064"/>
<path d="M10.625 1.25C10.7908 1.25 10.9497 1.31585 11.0669 1.43306C11.1842 1.55027 11.25 1.70924 11.25 1.875V3.125C11.25 3.29076 11.1842 3.44973 11.0669 3.56694C10.9497 3.68415 10.7908 3.75 10.625 3.75H6.875C6.70924 3.75 6.55027 3.68415 6.43306 3.56694C6.31585 3.44973 6.25 3.29076 6.25 3.125V1.875C6.25 1.70924 6.31585 1.55027 6.43306 1.43306C6.55027 1.31585 6.70924 1.25 6.875 1.25H10.625ZM6.875 0C6.37772 0 5.90081 0.197544 5.54917 0.549175C5.19754 0.900805 5 1.37772 5 1.875V3.125C5 3.62228 5.19754 4.09919 5.54917 4.45083C5.90081 4.80246 6.37772 5 6.875 5H10.625C11.1223 5 11.5992 4.80246 11.9508 4.45083C12.3025 4.09919 12.5 3.62228 12.5 3.125V1.875C12.5 1.37772 12.3025 0.900805 11.9508 0.549175C11.5992 0.197544 11.1223 0 10.625 0L6.875 0Z" fill="#5D6064"/>
</svg>
